<svg width="111" height="13" viewBox="0 0 111 13" fill="none" xmlns="http://www.w3.org/2000/svg">
<path d="M22.8147 10.3392C21.679 11.4718 20.2969 12.0381 18.6683 12.0381C17.0398 12.0381 15.6577 11.4718 14.5219 10.3392C13.397 9.19578 12.8345 7.79889 12.8345 6.1485C12.8345 4.49812 13.397 3.10661 14.5219 1.97399C15.6577 0.830579 17.0398 0.258884 18.6683 0.258884C20.2969 0.258884 21.679 0.830579 22.8147 1.97399C23.9504 3.10661 24.5182 4.49812 24.5182 6.1485C24.5182 7.79889 23.9504 9.19578 22.8147 10.3392ZM16.0809 8.81825C16.7773 9.50861 17.6398 9.85379 18.6683 9.85379C19.6969 9.85379 20.5594 9.50861 21.2558 8.81825C21.9522 8.11711 22.3004 7.2272 22.3004 6.1485C22.3004 5.06981 21.9522 4.1799 21.2558 3.47876C20.5594 2.77762 19.6969 2.42704 18.6683 2.42704C17.6398 2.42704 16.7773 2.77762 16.0809 3.47876C15.3844 4.1799 15.0362 5.06981 15.0362 6.1485C15.0362 7.2272 15.3844 8.11711 16.0809 8.81825ZM29.9664 3.49494C30.8448 3.49494 31.568 3.79157 32.136 4.38485C32.7145 4.97814 33.0038 5.79792 33.0038 6.84425V11.8116H30.9306V7.10314C30.9306 6.5638 30.786 6.15389 30.4967 5.87344C30.2074 5.58219 29.8217 5.43657 29.3396 5.43657C28.8037 5.43657 28.3753 5.60376 28.0539 5.93816C27.7325 6.27256 27.5718 6.77415 27.5718 7.44292V11.8116H25.4986V3.72146H27.5718V4.62756C28.0752 3.87247 28.8735 3.49494 29.9664 3.49494ZM34.2918 11.8116V0H36.365V11.8116H34.2918ZM38.8088 2.75065C38.466 2.75065 38.1659 2.62659 37.9088 2.3785C37.6625 2.11962 37.5392 1.81758 37.5392 1.4724C37.5392 1.12723 37.6625 0.825194 37.9088 0.566309C38.1659 0.307425 38.466 0.177983 38.8088 0.177983C39.1623 0.177983 39.4624 0.307425 39.7088 0.566309C39.9659 0.825194 40.0945 1.12723 40.0945 1.4724C40.0945 1.81758 39.9659 2.11962 39.7088 2.3785C39.4624 2.62659 39.1623 2.75065 38.8088 2.75065ZM37.7802 11.8116V3.72146H39.8534V11.8116H37.7802ZM45.7367 3.49494C46.6154 3.49494 47.3386 3.79157 47.9063 4.38485C48.4849 4.97814 48.7742 5.79792 48.7742 6.84425V11.8116H46.701V7.10314C46.701 6.5638 46.5564 6.15389 46.2671 5.87344C45.9778 5.58219 45.5921 5.43657 45.1099 5.43657C44.5743 5.43657 44.1457 5.60376 43.8242 5.93816C43.5028 6.27256 43.3421 6.77415 43.3421 7.44292V11.8116H41.2689V3.72146H43.3421V4.62756C43.8456 3.87247 44.6439 3.49494 45.7367 3.49494ZM51.8139 8.62408C52.0926 9.63806 52.848 10.145 54.0799 10.145C54.8729 10.145 55.4729 9.87535 55.8799 9.33602L57.5513 10.3068C56.7585 11.461 55.5906 12.0381 54.0478 12.0381C52.7194 12.0381 51.6532 11.6336 50.8496 10.8246C50.0461 10.0156 49.6443 8.99623 49.6443 7.76653C49.6443 6.54762 50.0408 5.53365 50.8335 4.72464C51.6266 3.90483 52.6443 3.49494 53.8871 3.49494C55.0658 3.49494 56.0353 3.90483 56.796 4.72464C57.5674 5.54445 57.9531 6.55839 57.9531 7.76653C57.9531 8.03621 57.9265 8.32204 57.8727 8.62408H51.8139ZM51.7817 7.00606H55.8799C55.7621 6.45593 55.5158 6.04604 55.1406 5.77636C54.7765 5.50668 54.3587 5.37185 53.8871 5.37185C53.3301 5.37185 52.8693 5.51747 52.505 5.80872C52.1408 6.08917 51.8998 6.48829 51.7817 7.00606Z" fill="#0061EF"/>
<path d="M63.4824 0.485908C65.0253 0.485908 66.311 1.03065 67.3395 2.12012C68.3789 3.20958 68.8984 4.55254 68.8984 6.149C68.8984 7.74546 68.3789 9.08843 67.3395 10.1779C66.311 11.2674 65.0253 11.8121 63.4824 11.8121H59.0146V0.485908H63.4824ZM63.4824 9.6763C64.4575 9.6763 65.2503 9.3527 65.861 8.70549C66.4717 8.04748 66.777 7.19533 66.777 6.149C66.777 5.10267 66.4717 4.25591 65.861 3.6087C65.2503 2.95069 64.4575 2.6217 63.4824 2.6217H61.2325V9.6763H63.4824ZM70.9216 2.75115C70.5789 2.75115 70.2788 2.62709 70.0217 2.379C69.7753 2.12011 69.652 1.81807 69.652 1.4729C69.652 1.12773 69.7753 0.825693 70.0217 0.566809C70.2788 0.307924 70.5789 0.178482 70.9216 0.178482C71.2752 0.178482 71.5753 0.307924 71.8216 0.566809C72.0788 0.825693 72.2073 1.12773 72.2073 1.4729C72.2073 1.81807 72.0788 2.12011 71.8216 2.379C71.5753 2.62709 71.2752 2.75115 70.9216 2.75115ZM69.8931 11.8121V3.72196H71.9663V11.8121H69.8931ZM78.6692 3.72196H80.9513L77.8975 11.8121H75.5351L72.4816 3.72196H74.7639L76.7083 9.38506L78.6692 3.72196ZM88.0013 10.8089C87.1761 11.6287 86.1692 12.0386 84.9799 12.0386C83.7906 12.0386 82.7834 11.6287 81.9585 10.8089C81.1442 9.97834 80.7371 8.96437 80.7371 7.76703C80.7371 6.56969 81.1442 5.56113 81.9585 4.74132C82.7834 3.91074 83.7906 3.49544 84.9799 3.49544C86.1692 3.49544 87.1761 3.91074 88.0013 4.74132C88.8262 5.56113 89.2388 6.56969 89.2388 7.76703C89.2388 8.96437 88.8262 9.97834 88.0013 10.8089ZM83.421 9.36888C83.8389 9.78956 84.3584 9.99991 84.9799 9.99991C85.6012 9.99991 86.121 9.78956 86.5388 9.36888C86.9567 8.94819 87.1656 8.41424 87.1656 7.76703C87.1656 7.11982 86.9567 6.58587 86.5388 6.16518C86.121 5.7445 85.6012 5.53415 84.9799 5.53415C84.3584 5.53415 83.8389 5.7445 83.421 6.16518C83.0137 6.58587 82.8103 7.11982 82.8103 7.76703C82.8103 8.41424 83.0137 8.94819 83.421 9.36888ZM92.288 5.11347C92.4809 4.5957 92.797 4.20737 93.2362 3.94849C93.6862 3.6896 94.1844 3.56016 94.7309 3.56016V5.89012C94.0988 5.8146 93.531 5.94404 93.0273 6.27844C92.5346 6.61284 92.288 7.16836 92.288 7.94501V11.8121H90.2149V3.72196H92.288V5.11347ZM98.9882 12.0386C97.7773 12.0386 96.7649 11.6287 95.9508 10.8089C95.1472 9.98911 94.7454 8.97516 94.7454 7.76703C94.7454 6.55889 95.1472 5.54495 95.9508 4.72514C96.7649 3.90533 97.7773 3.49544 98.9882 3.49544C99.7702 3.49544 100.483 3.68422 101.126 4.06175C101.769 4.43928 102.256 4.94628 102.588 5.58269L100.804 6.63441C100.644 6.30001 100.397 6.03574 100.065 5.84158C99.7436 5.64741 99.3792 5.55033 98.9721 5.55033C98.3506 5.55033 97.8364 5.76068 97.4293 6.18136C97.022 6.59125 96.8186 7.11982 96.8186 7.76703C96.8186 8.40344 97.022 8.93201 97.4293 9.3527C97.8364 9.76259 98.3506 9.96755 98.9721 9.96755C99.39 9.96755 99.7596 9.87585 100.081 9.69248C100.413 9.49832 100.66 9.23405 100.82 8.89965L102.62 9.93518C102.267 10.5716 101.769 11.084 101.126 11.4723C100.483 11.8498 99.7702 12.0386 98.9882 12.0386ZM104.861 8.62458C105.139 9.63855 105.895 10.1455 107.127 10.1455C107.92 10.1455 108.52 9.87585 108.927 9.33652L110.598 10.3073C109.805 11.4615 108.637 12.0386 107.095 12.0386C105.766 12.0386 104.7 11.6341 103.896 10.8251C103.093 10.0161 102.691 8.99673 102.691 7.76703C102.691 6.54812 103.088 5.53415 103.88 4.72514C104.673 3.90533 105.691 3.49544 106.934 3.49544C108.112 3.49544 109.082 3.90533 109.843 4.72514C110.614 5.54495 111 6.55889 111 7.76703C111 8.03671 110.973 8.32254 110.92 8.62458H104.861ZM104.829 7.00656H108.927C108.809 6.45643 108.562 6.04654 108.187 5.77686C107.823 5.50718 107.405 5.37235 106.934 5.37235C106.377 5.37235 105.916 5.51797 105.552 5.80922C105.187 6.08967 104.946 6.48879 104.829 7.00656Z" fill="black"/>
<path d="M2.90105 0.325775H0L3.0245 5.36843H5.86382L2.90105 0.325775Z" fill="#0061EF"/>
<path d="M6.13856 0.325775H9.03961L6.01511 5.36843H3.17578L6.13856 0.325775Z" fill="#0054CF"/>
<path d="M4.52002 12.0104C7.01636 12.0104 9.04004 9.97297 9.04004 7.45968C9.04004 4.9464 7.01636 2.90898 4.52002 2.90898C2.02368 2.90898 0 4.9464 0 7.45968C0 9.97297 2.02368 12.0104 4.52002 12.0104Z" fill="#FFCC01"/>
<path d="M3.25841 9.55003L3.60917 8.0035L2.44287 6.96374L3.97918 6.82694L4.58087 5.36832L5.18254 6.82664L6.71857 6.96346L5.55255 8.00322L5.90331 9.54975L4.58087 8.72888L3.25841 9.55003Z" fill="white"/>
</svg>
